<?xml version="1.0" encoding="utf-8"?>
<!-- Generator: Adobe Adobe Illustrator 29.2.0, SVG Export Plug-In . SVG Version: 6.00 Build 0)  -->
<svg version="1.1" id="Layer_1" xmlns="http://www.w3.org/2000/svg" xmlns:xlink="http://www.w3.org/1999/xlink" x="0px" y="0px"
	 viewBox="0 0 1000 500" style="enable-background:new 0 0 1000 500;" xml:space="preserve">
<style type="text/css">
	.st0{fill:#C32A1A;}
	.st1{fill:#C42B1B;}
	.st2{fill:#C32B1C;}
	.st3{fill:#C42C1C;}
	.st4{fill:#0D0D0C;}
	.st5{fill:#070707;}
	.st6{fill:#C32A1B;}
	.st7{fill:#EAA939;}
	.st8{fill:#C62C1C;}
	.st9{fill:#C72D1D;}
	.st10{fill:#070706;}
	.st11{fill:#050505;}
	.st12{fill:#C0231A;}
	.st13{fill:#C83321;}
	.st14{fill:#0E0D0C;}
	.st15{fill:#E5E3E1;}
	.st16{fill:#C12319;}
	.st17{fill:#C32318;}
	.st18{fill:#C31F13;}
	.st19{fill:#19100A;}
	.st20{fill:#111110;}
	.st21{fill:#0F100F;}
	.st22{fill:#C0190D;}
	.st23{fill:#10100F;}
	.st24{fill:#C32B1B;}
	.st25{fill:#C21B0E;}
	.st26{fill:#E7A738;}
	.st27{fill:#DF9D2D;}
	.st28{fill:#E2A12D;}
	.st29{fill:#191612;}
	.st30{fill:#E1A836;}
	.st31{fill:#939390;}
	.st32{fill:#C22E1C;}
	.st33{fill:#E4A131;}
	.st34{fill:#C72E1C;}
	.st35{fill:#E6A53D;}
	.st36{fill:#1B0E04;}
	.st37{fill:#F7D1C5;}
	.st38{fill:#EDAF4B;}
	.st39{fill:#C22D1B;}
	.st40{fill:#D02F1B;}
	.st41{fill:#F2B138;}
	.st42{fill:#EDAD3E;}
	.st43{fill:#1A1305;}
	.st44{fill:#211806;}
	.st45{fill:#E9A534;}
	.st46{fill:#1A1505;}
	.st47{fill:#DA412C;}
	.st48{fill:#C32B1A;}
	.st49{fill:#C42C1B;}
	.st50{fill:#0A0A0A;}
	.st51{fill:#C12819;}
	.st52{fill:#C62D1D;}
	.st53{fill:#16100A;}
	.st54{fill:#C72E1D;}
	.st55{fill:#160F04;}
	.st56{fill:#467147;}
	.st57{fill:#4A7449;}
	.st58{fill:#457247;}
	.st59{fill:#477248;}
	.st60{fill:#4B764B;}
	.st61{fill:#416C42;}
	.st62{fill:#C32C1E;}
	.st63{fill:#537A55;}
	.st64{fill:#416B42;}
	.st65{fill:#C21B0F;}
	.st66{fill:#C1190F;}
	.st67{fill:#4F7A50;}
	.st68{fill:#C74036;}
	.st69{fill:#0B0B0B;}
	.st70{fill:#BA180B;}
	.st71{fill:#F7EEDB;}
	.st72{fill:#100705;}
	.st73{fill:#0C0706;}
	.st74{fill:#CB362E;}
	.st75{fill:#C52B1B;}
	.st76{fill:#C42B1A;}
	.st77{fill:#E8A635;}
	.st78{fill:#C52C1A;}
	.st79{fill:#C42C1A;}
	.st80{fill:#C82F1C;}
	.st81{fill:#291507;}
	.st82{fill:#C52E1F;}
	.st83{fill:#C42F21;}
	.st84{fill:#CA3426;}
	.st85{fill:#C22C1D;}
	.st86{fill:#1A1004;}
	.st87{fill:#211706;}
	.st88{fill:#312407;}
</style>
<g id="_x3C_Group_x3E_">
	<path class="st0" d="M228.81,417.29c-28.13,11.3-56.8,11.88-86.16,8.18c-23.99-3.02-45.23-11.57-64.43-25.88
		c-19.96-14.87-35.03-33.22-45.96-55.92c-7.61-15.81-13.1-32.01-15.82-48.85c-4.62-28.61-4.41-57.41,1.33-86.11
		c6.11-30.58,18.61-58.63,35.74-84.14c13.61-20.28,31.09-37.45,51.91-51.44c14.79-9.94,30.32-17.73,46.79-23.42
		c24.23-8.37,49.12-11.79,74.92-6.4c15.2,3.18,28.3,9.26,38.38,20.86c17.14,19.72,22.58,43.18,9.18,66.85
		c-6.09,10.76-13.88,19.22-26.55,23.03c-10.38,3.13-19.9,2.1-28.21-3.67c-6.58-4.57-9.14-12.28-3.28-19.3
		c12.28-14.72,4.92-37.31-20.1-38.97c-17.7-1.18-32.47,5.58-46.12,14.53c-21.51,14.1-37.4,34.19-48.62,56.85
		c-12.19,24.62-19.48,51.15-21.69,78.86c-2.03,25.51,2.48,49.95,12.54,73.17c15.94,36.76,52.09,65.83,99.59,58.39
		c9.92,3.47,14.63,11.9,21.82,18.65c0.77,0.96,1.06,1.35,1.78,2.35C220.4,402.57,228.74,407.14,228.81,417.29z"/>
	<path class="st1" d="M562.68,234.77c-0.14-2.42-0.25-4.02-0.13-6.39c2.79-2.96,3.83-5.89,3.47-9.06
		c-0.85-7.45,0.26-14.85-0.23-22.9c1.92-31.52,3.94-62.44,3.79-93.45c-0.04-7.43,0.5-14.31-6.83-19.77
		c-5.14-3.82-1.86-15.31,5.29-18.54c9.93-4.48,20.13-8.68,31.39-8.71c13-0.03,21.27,8.44,18.09,20.86
		c-7.26,28.42-8.19,57.62-12.11,86.44c-0.32,2.38,0.37,4.89,0.29,8.24c-2.11,2.36-1.29,4.52-2.11,6.98
		c-0.26,3.48-0.14,6.32-0.11,10.02c-0.92,1.08-1.23,1.62-0.61,2.78c0.51,1.25,0.6,2.2,0.46,3.83c-1.92,3.16-3.3,5.68-1.05,8.96
		c7.19,0.16,9.18-6.25,12.48-9.88c7.28-8.01,13.06-17.43,19.08-26.51c2.44-3.68,2.04-7.76,0.23-12.08
		c-3.15-7.51-0.01-12.93,7.12-16.24c14.21-6.59,30.81-1,36.51,11.38c3.64,7.91,0,14.42-3.8,19.56
		c-10.18,13.76-21.63,26.59-32.73,39.67c-2.92,3.44-4.85,6.38-2.58,11.27c8.06,17.35,16.16,34.7,23.33,52.42
		c4.95,12.23,10.66,23.35,20.02,33.16c6.58,6.89-4.42,24.72-15.1,24.67c-20.75-0.09-24.5,4.58-34.38-20.24
		c-8.46-21.24-12.18-44.31-24.74-64.21c-5.15,0.68-6.6,4.13-7.36,8.67c-2.4,14.4-1.15,28.88-1.41,43.33
		c-0.08,4.14,2.86,6.31,5.1,8.86c5.43,6.19,4.41,13.54,2.3,19.96c-1.79,5.46-8.41,5.28-13.62,5.75c-9.14,0.82-18.28,1.93-27.44,2.3
		c-6.01,0.24-12.7-0.53-15.22-6.92c-2.46-6.26-2.26-12.95,3.22-18.37c4.56-4.51,5.09-10.44,5.86-16.5c1.3-10.2,1.53-20.4,1.62-31.62
		C564.59,253.11,561.92,244.24,562.68,234.77z"/>
	<path class="st2" d="M981.61,192.77c-1.26,8.97-5.74,15.3-12,19.99c-5.01,3.74-11.5,5.32-16.77,0.87
		c-4.98-4.2-7.79-9.21-2.98-16.51c4.83-7.35,0.56-16.55-7.54-19.62c-8.38-3.18-15.86,0.39-18.71,8.93
		c-4.78,14.35-0.09,28,13.68,39.87c14.54,12.54,28.89,25.39,38.79,42.04c10.03,16.88,13.2,35.2,8.79,54.64
		c-2.88,12.69-8.24,23.96-18.39,32.34c-14.92,12.32-31.85,17.86-50.87,11.65c-17.64-5.76-30.81-16.89-38.3-34.43
		c-6.27-14.7-1.93-39.98,9.3-49.96c8.6-7.65,20.44-7.62,26.4,0.11c5.27,6.84,2.2,13.03-1.15,19.56
		c-7.36,14.38,2.69,30.11,18.34,29.19c6.67-0.39,11.13-3.67,13.83-9.74c6.09-13.7,2.95-26.9-6.53-38.85
		c-10.77-13.58-24.08-24.53-35.78-37.12c-20.79-22.38-23.31-57.34-5.24-81.17c12.52-16.52,34.28-22.44,55.95-14.85
		C972.84,156.85,981.59,170.98,981.61,192.77z"/>
	<path class="st3" d="M454.77,140.62c1.94-0.05,3.01,0.05,4.06-0.08c20.36-2.55,22.28-0.96,23.62,20.26
		c5.22-2.68,7.22-7.76,10.02-11.85c8.52-12.44,23.63-19.64,36.21-16.61c11.27,2.71,19.86,15.77,21.59,30.8
		c1.69,14.73,1.34,28.57-9.35,40.37c-4.38,4.84-18.52,7.93-24.59,4.09c-7.01-4.44-9.72-10.77-5.99-19.05
		c1.93-4.28,3.4-9.84-2.29-11.8c-6.15-2.12-11.07,2.37-13.69,7.39c-4.71,9.04-8.69,18.54-9.72,28.86
		c-3.03,30.31-3.09,60.6,1.01,90.84c0.53,3.92,1.6,7.04,5.02,9.89c11.27,9.36,8.08,27.55-8.81,30.8
		c-13.38,2.57-26.8,4.61-40.29,5.92c-8.69,0.84-16.22-11.99-10.54-19.16c12.61-15.95,11.47-34.62,11.99-52.59
		c0.89-31.03,1.94-62.14-0.67-93.19c-0.38-4.48-1.64-8.08-4.59-11.42c-10.47-11.87-9.08-19.93,4.43-28.85
		C445.85,142.82,449.78,141.64,454.77,140.62z"/>
	<path class="st4" d="M476.26,408.05c-10.02-0.71-19.16,0.78-28,3.28c-21.45,6.06-43.88,6.44-65.46,11.68
		c-2.58,0.63-5.65,1-8.67-1.93c4.8-6.96,12.69-9.05,19.86-11.4c18.33-6.02,36.79-11.75,55.44-16.69
		c33.5-8.87,67.93-12.54,102.19-17.05c34.08-4.48,68.29-6.83,102.72-6.36c31.19,0.42,61.97,3.92,92.58,9.55
		c6.57,1.21,13.16,2.3,19.79,3.14c3.73,0.47,6.41,2.03,9.27,6.8c-4.72,0-8.36,0.05-12-0.01c-37.21-0.63-74.81-2.01-111.31,4.17
		c-23.34,3.95-46.75,8.8-70.25,11.66c-33.42,4.07-65.97,12.12-98.91,18.34c-3.52,0.66-7.2,2.19-9.19-2
		c-1.03-2.16,1.79-2.51,3.56-3.99c2.86-8.51,10.75-8.38,15.74-11.29C488.66,407.32,483.05,409.47,476.26,408.05z"/>
	<path class="st1" d="M738.73,224.88c0.57,1.56,0.68,2.51,0.61,4.17c-4.39,11.24-1.17,22.47-2.72,33.93
		c0.62,10.64,0.75,20.56,0.76,31.46c-0.21,2.15-0.07,3.27,0.84,4.79c5.1,9.1,13.83,16.96,4.01,27.83
		c-5.46,6.05-42.62,6.8-47.53,0.31c-3.77-4.99-6.79-10.98-3.42-16.66c6.14-10.35,5.94-21.83,6.7-32.87
		c2.23-32.42,3.38-64.91,4.87-97.37c0.19-4.2,0.29-8.21-4.32-11.05c-6.92-4.26-4.41-11.55-3.57-17.41
		c0.84-5.83,5.83-9.91,11.51-11.13c7.21-1.55,14.69-2.33,22.07-2.42c14.27-0.19,20.25,7.06,17.06,20.9
		c-2.79,12.13-4.69,24.25-4.4,37.66c-0.36,1.29-0.55,1.63-0.47,2.47c0.37,2.13,0.46,3.74,0.36,6.15
		C737.82,212.05,739.96,218.44,738.73,224.88z"/>
	<path class="st5" d="M224.15,190.24c9.04-2,17.62-1.16,27.15-0.78c4.19,2.78,2.95,7.53,5.94,10.31c5.08,2.07,9.96-3.23,15.69-0.15
		c2.97,2.23,2.71,4.88,2.72,8.16c-3.81,4.36-9.29,4.34-13.95,7.62c-9.46,1-18.16-1.96-26.98-0.21c-1.38,0.27,0.31-0.33-1.04,0.05
		c-1,0.29-0.92,1.03,0.4,2.11c0.87,2.01,0.85,3.45,0.07,5.59c-1.97,2.29-4.07,2.75-6.93,3.44c-1.82,0.42-2.85,0.65-4.65,1.08
		c-8.92,1.88-16.96,4.11-25.86,5.73c-5.96-4.13-3.05-7.92-0.25-12c-2.42,1.21-4.21,3.41-7.61,2.58c-1.33-0.27-1.9-0.03-2.23,1.17
		c0.8,3.46,2.39,6.14,2.5,9.91c-3.19,4.56-7.63,4.79-12.59,5.08c-1.34,0.24-1.61-1.7-2.41-0.09c0,1.49-0.4,2.48-1.23,4.02
		c-4.81,5.24-11.15,6.72-17.17,10.16c-3.67,0.29-5.47-1.26-6.72-4.55c-0.07-1.24,0-1.74,0.39-2.9c1.87-2.65,4.14-3.26,6.73-4.12
		c0.35-0.18,0.56-0.86,0.24-0.74c-0.31,0.12-1.22,0.16-1.22,0.16s-0.91-0.04-1.51-0.11c-5.72-0.58-10.87-2.12-15.67,0.07
		c-1.89,3.05,0.78,4.85,1.34,7.83c1.85,5.82-6.39,7.97-3.25,14.02c2.86,6.59-0.51,10.47-5,14.65c-0.98,0.77-1.38,1.04-2.43,1.61
		c-2.05,1.38-5.27,0.39-4.36,4.37c2.45,5.27,7.84,8.04,7.99,14.55c-0.61,1.64-1.26,2.38-2.79,3.22
		c-6.97-4.87-12.12-10.61-20.55-13.67c-12.26-4.45-15.37-22-7.22-32.63c4.89-6.37,10.67-12.06,16.56-18.51
		c2.14-0.01,3.65,0.22,4.05-2.69c11.51-11.55,24.03-20.68,39.65-26.47c6.03,2.4,9.19,0.6,11.14-5.3c4.37-5.66,11.05-4.19,16.7-6.92
		c4.63,3.19,2.82,9.71,8.03,12.04c-2.68-3.37-4.29-7-3.52-11.99c5.68-3.84,11.8-4.37,18.56-5.73c2.22,1,2.23,2.4,1.84,4.48
		c-0.4,1.18-0.94,1.8-0.85,2.29c0.11,0.63,0.83,0.57,1.93-0.36C219.27,195.1,221.45,192.89,224.15,190.24z"/>
	<path class="st6" d="M861.62,93.86c9.06-14.53,15.77-16.95,28.51-10.76c6.61,3.21,8.77,9.83,10.37,15.85
		c3.88,14.68-6.87,49.81-24.06,57.92c-2.86,1.35-5.52,4.21-8.44,1.21c-2.57-2.64-1.3-5.7,0.6-8.6c4.45-6.79,9.18-13.57,5.8-23.56
		C858.77,121.31,858.36,108.59,861.62,93.86z"/>
	<path class="st7" d="M254.22,454.8c-0.87,0.31-0.82-0.02-0.66,0.03c-0.36,0.22-0.89,0.39-2.19,0.8c-8.54-1.14-9.96-7.92-9.95-13.41
		c0-20.58-12.8-33.38-26.76-46.65c-0.56-0.59-0.59-0.42-0.5-0.42c-2.33-2.44-2.21-5.96-3.78-9.61c1.64-10.17,6.13-17.11,16.92-19.37
		c2.5-0.05,4.05,0.46,6.22,1.66c3.27,2.38,5.79,4.4,7.95,7.87c2.12,7.38,6.43,10.48,13.35,10.35c3.13-0.06,6.29,0.36,9.32,3.3
		C269.29,412.69,265.13,434.03,254.22,454.8z"/>
	<path class="st8" d="M739.36,70.03c15.73,17.35,13.8,35.12-2.73,46.68c-11.02,7.71-34.42-0.11-34.73-15.67
		c-0.26-13.3,1.9-24.19,13.74-31.52C723.25,64.81,731.01,64.91,739.36,70.03z"/>
	<path class="st9" d="M812.35,255.15c-2.28-9.24-9.1-15.34-13.79-23.52c9.62-8.09,18.4-16.57,28.92-23.79
		c2.01,7.67,7.77,8.87,14.04,9.13c4.21,0.17,8.43,0.03,13.6,0.01c-0.71,14.12-11.9,21.62-21.53,29.2
		C828.14,250.48,821.58,255.93,812.35,255.15z"/>
	<path class="st10" d="M211.42,384.3c1.26,3.97,4.96,6.03,3.64,10.42c-8.97-4.96-14.74-12.65-21.35-20.52
		c-19.17-20.8-37.78-41.12-56.75-62.15c-0.19-1.21-0.01-1.72,0.85-2.65c1.69-0.77,2.72-1,4.54-1.05c2.82,0.34,4.48,1.37,6.4,3.32
		c0.74,0.88,1.02,1.24,2.09,2.66c1.07,1.38,1.34,1.7,2.51,2.9c1.22,1.12,1.55,1.37,2.42,1.93c2.09,1.1,3.77,1.25,6.18,1.21
		c3.65-0.05,6.6-0.1,10.31,0.41c1.25,0.35,1.74,0.55,2.86,1.24c1.54,2.06,1.08,3.5-0.33,5.48c-1.38,1.11-2.28,1.55-3.9,2.01
		c-1.83,0.56-3.92,0.47-1.35,2.95c2.99,3.22,5.15,6.3,8.24,9.47c1.28,1.48,2.05,2.52,3.37,3.89c0.74,0.68,1.03,0.95,1.76,1.63
		c0.7,0.69,0.97,0.98,1.6,1.72c0.57,0.78,0.78,1.11,1.26,1.93c0.65,1.16,1.05,1.81,1.85,2.87c0.92,1.01,1.48,1.57,2.48,2.56
		c1.98,1.97,3.3,3.69,5.08,5.92C201.38,369.44,208.65,374.73,211.42,384.3z"/>
	<path class="st10" d="M253.31,456.21c6.97-21.97,12.85-43,9.67-66.36c-0.38-2.56-0.65-4.13-0.48-6.56c0.39-2.49,1-4.03,2.92-5.67
		c2.72-0.4,4.1,0.37,4.59,3.13c0.05,14.87,0.2,28.89,0.42,42.91c0.09,5.35,0.23,10.56-5.32,13.82c-4.36,2.55-1.93,6.93-2.13,10.41
		C262.6,454.31,260.85,458.6,253.31,456.21z"/>
	<path class="st11" d="M269.35,275.79c0.09,18.38,0.14,36.11-0.06,54.81c-1.74,2.3-3.47,2.63-6.18,1.73
		c-1.16-0.93-1.52-1.42-2.22-2.75c-1.85-8.99-0.85-17.21-1.14-26.25c0.08-2.49,0.1-4.14-0.39-6.56c-0.24-1.32-0.3-1.86-0.36-3.2
		c0.2-3.46,0.92-6.05,0.94-9.54c1.48-9.62-0.85-18.65,2.01-28.12c1.98-1.92,3.64-2.21,6.19-1.22c1.11,4.84,1.5,9.17,1.63,14.39
		C269.31,271.69,269.28,273.41,269.35,275.79z"/>
	<path class="st10" d="M213.91,395.74c1.84-3.97,3.56-2.2,4.92-0.64c12.28,14.21,28.32,26.51,24.9,48.75
		c-0.68,4.4,2.39,7.15,5.85,10.39c1.38,1.37,1.68,2.32,1.02,4.13c-11.43-0.73-11.02-9.96-12.64-17.53
		c-1.68-7.89-0.6-16.67-8.66-22.68C226.23,409.07,217.15,404.74,213.91,395.74z"/>
	<path class="st12" d="M295.37,262.95c-0.17,5.94-1.5,11.24,0.53,16.46c5.03,2.12,11.5,0.9,15.18,6.8
		c-0.48,9.34-14.26,5.74-15.76,15.23c-5.12-14.35-4.68-29.44-2.85-45.4C297.37,255.97,296.74,259.03,295.37,262.95z"/>
	<path class="st5" d="M269.1,254.24c-1.59,0.94-2.94,0.93-5.58,0.62c-2.43-1.73-2.67-3.49-3.08-5.86c-0.2-1.07-0.28-1.5-0.49-2.57
		c-0.18-1.08-0.24-1.52-0.32-2.62c0.08-2,0.3-3.32,0.47-5.33c0.14-3.37,0.28-6.06-0.17-9.35c-0.69-2.3-1.89-3.19-4.31-3.46
		c-4.55-0.48-8.7,0.73-12.68-2.57c-0.98-2.35-0.89-4,0.34-6.29c5.06-2.77,9.75-1.84,15.24-1.28c5.01,0.22,8.44,2.19,12.31,5.05
		C267.83,231.74,270.13,242.61,269.1,254.24z"/>
	<path class="st13" d="M863.31,292.9c-6.69-6.34-17.25-8.33-21.61-18.27c3.86-6.56,8-13.72,16.83-4.68
		c0.5,4.14,2.06,7.11,4.67,10.16C865.18,284.31,864.97,288.34,863.31,292.9z"/>
	<path class="st14" d="M273.38,199.29c-2.25,1.25-4.75,1.45-7,2.3c-13.19,4.98-13.99,4.44-14.1-11
		C260.8,188.99,269.38,188.2,273.38,199.29z"/>
	<path class="st10" d="M262.52,332.12c2.16-0.56,3.61-0.56,5.79-0.56c0.98,5.71,1.23,11.41,1.33,17.85
		c0.52,9.31,3.22,18.22-5.15,25.41c-6.89-5.77-4.12-13.14-4.63-19.84c-0.34-4.51,0.38-9.06,0.28-14.5c0.02-2.1,0.14-3.3,0.57-5.36
		C261.24,333.73,261.52,333.21,262.52,332.12z"/>
	<path class="st15" d="M475.56,408.72c8.69-2.8,17.22-6.19,28.28-4.48c-8.62,5.39-18.51,4.76-24.87,12.24
		C475.3,415.05,475.67,412.21,475.56,408.72z"/>
	<path class="st16" d="M295.61,263.61c-1.08-2.38-1.39-4.87-2.26-7.87c-2.02-9.94,2.68-18.33,4.56-27.82
		c5.2,3.09,0.68,7.14,0.89,10.98c0.31,5.9-3.54,11.74,1.53,17.73C302.62,259.35,299.94,262.44,295.61,263.61z"/>
	<path class="st17" d="M565.21,196.7c5.4,5.66,4.78,25.21-1.61,30.8C563.53,217.61,564.27,207.6,565.21,196.7z"/>
	<path class="st11" d="M271.91,220.7c-4.07,0.59-7.73,1.05-10.46-3.22c-0.98-0.85-1.38-1.25-1.18-2.26
		c3.02-6.67,8.59-6.08,14.41-6.69C276.91,213.04,274.65,216.59,271.91,220.7z"/>
	<path class="st18" d="M737.31,262.8c-3.55-10.33-4.17-21.52,1.01-32.86C738.61,240.47,738.05,251.2,737.31,262.8z"/>
	<path class="st11" d="M193.96,195.28c3.42,5.42,3.36,12.6,12.19,14.98c-11.24,2.14-14.69-1.11-15.53-13.41
		C191.5,195.77,192.38,195.53,193.96,195.28z"/>
	<path class="st17" d="M562.42,234.78c3.72,8.23,4.05,17.28-0.68,26.54C559.92,252.84,560.73,244.21,562.42,234.78z"/>
	<path class="st19" d="M262.85,374.36c8.23-6.21,5.61-14.72,6.52-23.28c3.47,8.85,1.2,18.87,0.9,29.66
		c-1.44-0.79-2.75-2.08-5.79-2.25C262.13,377.58,261.79,376.32,262.85,374.36z"/>
	<path class="st20" d="M172.89,202.28c0.33,3.78,1.64,7.75-0.5,11.47c-3.99,0.56-6.69-1.44-9.29-5.02
		C165.91,206.11,169.05,204.19,172.89,202.28z"/>
	<path class="st21" d="M212.28,196.28c0.15-1.85,0.71-3.23,1.36-5.34c3.22-0.98,6.33-1.23,10.23-1.32c0.96,4.99-0.68,8.27-6.95,8.28
		C214.85,197.93,213.67,197.64,212.28,196.28z"/>
	<path class="st10" d="M128.91,302.95c0.57-1.46,1.29-2.27,2.75-3.47c2.22-0.92,3.61-0.61,5.59,0.47c1.37,1.03,2.05,1.74,3.04,3.14
		c0.55,1.08,0.72,1.54,0.97,2.73c0.02,1.7-0.23,2.62-1.2,4.01c-0.97,0.75-1.45,0.97-2.7,1.36
		C134.09,308.76,131.58,306.17,128.91,302.95z"/>
	<path class="st18" d="M739.38,224.66c-3.4-5.41-3.73-11.61,0.74-18.01C740.46,212.23,740.02,218.03,739.38,224.66z"/>
	<path class="st22" d="M603,203.47c-1.2,1.64-2.21,2.44-3.48,3.45c-1.13-4.15-1.18-7.67,2.95-10.77
		C603.14,198.08,603.17,200.35,603,203.47z"/>
	<path class="st23" d="M121.99,234.19c1.11,1.73,4.46,1.9,3.53,4.65c-2.33,1.73-3.73-0.44-6.09-1.61
		C119.66,235.98,120.53,235.15,121.99,234.19z"/>
	<path class="st24" d="M863.99,279.45c-4.78,0.34-5.79-2.84-5.34-7.89C861.48,272.66,863.17,275.35,863.99,279.45z"/>
	<path class="st19" d="M269.63,275.93c-2.53-1.06-2.86-2.96-0.68-5.58C269.63,271.79,269.76,273.61,269.63,275.93z"/>
	<path class="st18" d="M738.55,299.14c-1.99,0.09-4.01-0.37-1.77-3.42C737.71,296.47,738.14,297.52,738.55,299.14z"/>
	<path class="st22" d="M603.91,178.76c-0.35-1.57-0.02-3.51,0.91-5.9C605.14,174.41,604.87,176.4,603.91,178.76z"/>
	<path class="st19" d="M251.16,459.29c-0.99-1.17-1.01-2.11-1.03-3.76c0.6-0.81,1.2-0.91,2.69-0.83
		C255.22,457.12,254.71,458.67,251.16,459.29z"/>
	<path class="st9" d="M858.59,212.27c-0.6,0.03-0.92-0.41-1.12-0.89c-0.03-0.08,0.4-0.35,1.04-0.66
		C858.92,210.99,858.92,211.39,858.59,212.27z"/>
	<path class="st22" d="M603.52,191.05c-0.6,0.16-1.01-0.2-1.34-0.64c-0.05-0.06,0.31-0.43,0.86-0.86
		C603.52,189.74,603.63,190.12,603.52,191.05z"/>
	<path class="st18" d="M741.13,199.49c-0.43,0.16-0.77-0.15-1.01-0.54c-0.06-0.1,0.2-0.4,0.61-0.8
		C741.04,197.97,741.26,198.99,741.13,199.49z"/>
	<g>
		<g>
			<path class="st1" d="M418.21,299.2c-1.11-6.51-4.32-10.95-11.22-12.3c-7.71-1.51-11.36,3.86-13.38,9.21
				c-2.13,5.63-4.79,10.94-7.46,16.24c-6.1,12.17-16.37,15.88-29.08,10.94c-10.41-4.04-18.71-23.03-16.15-38.09
				c14.73,0.98,26.16-7.53,38.13-14.48c16.6-9.62,25.24-25.32,33.1-42.14c10.57-22.61-3.57-61.49-22.98-72.12
				c-19.39-10.62-44.24-3.73-59.27,10.75c-16.99,16.37-27.63,36.63-31.27,60.9c-0.5,10.37-6.62,19.64-1.36,29.75
				c1.15,2.2-2.71,3.63-3.94,6.5c-3.06,11.99,0.91,19.6,14.43,22.03c-5.98,5.94-14.1,7.28-12.98,16.32
				c5.55,18.77,9.49,36.84,24.01,51.22c16.01,15.84,41.36,21.24,61.69,11.89c16.84-7.74,26.64-21.26,33.78-36.65
				C418.4,320.26,419.97,309.6,418.21,299.2z M349.64,197.64c3.45-6.44,8.59-13.15,16.97-11.48c7.58,1.51,11.3,7.84,11.11,16.79
				c0.04,27.16-18.67,52.1-38.3,51.48C337.5,234.54,340.12,215.39,349.64,197.64z"/>
		</g>
	</g>
	<g>
		<g>
			<path class="st24" d="M840.39,274.52c-1.65,4.05-2.38,7.84-3.54,11.49c-3.31,10.41-16.39,18.19-24.48,14.31
				c-12.56-6.02-15.78-17.75-17.84-30.16c-2.02-12.16,9.38-10.36,14.97-14.59c0.51-0.39,1.34-0.36,2.5-1.13
				c0.65-10.29-5.82-16.37-12.19-23.3c-0.29-0.27-0.54-0.53-0.79-0.78c-0.01,0-0.02,0.01-0.04,0.01c-1.61,0.34-2.66,0.22-4.12-0.28
				c-2.65-7.05-1.01-13.54,1.12-20.79c0.59-2.27,0.67-3.79,0.75-6.07c1.29-2.38,0.87-4.35,1.5-6.78
				c3.73-7.45,7.02-14.32,10.55-21.08c3.22-6.17,7.93-6.27,12.71-6.25c5.17,0.02,6.22,4.18,7.72,8.99
				c3.06,9.74-1.01,18.71-0.91,28.9c-0.7,0.67-1.38,1.36-2.05,2.06c0.17,0.9,0.38,1.81,0.67,2.75c8.85,9.41,17.64,10.75,29.63,4.77
				c0.89-1.54,1.3-2.68,1.33-4.19c-0.17-1.12,0.32-1.57,1.55-2.4c6.03-16.49,2.24-31.43-2.32-46.98
				c-5.59-19.06-29.98-28.86-45.16-24.96c-15.3,3.92-26.32,12.36-34.43,24.96c-8.89,13.82-14.69,28.82-18.46,45.12
				c-8.83,38.24-8.65,75,11.45,109.98c9.92,17.26,34.23,30.34,55.65,21.16c20.37-8.73,31.7-24.73,36.49-46.56
				C856.77,284.37,849.38,278.75,840.39,274.52z"/>
		</g>
	</g>
	<path class="st25" d="M795.69,208.73c0.21,6.28-0.4,12.74-1.11,20.1C791.44,222.72,790.71,215.77,795.69,208.73z"/>
	<path class="st25" d="M798.06,196.32c0.36,1.48,0.18,3.44-0.66,5.77C797,200.58,797.26,198.69,798.06,196.32z"/>
	<path class="st26" d="M262.31,225.06c0.62,4.68,0.64,8.94,0.57,14.11c-1.04,1.38-2.14,1.89-3.09,1.58
		c-18.92-6.08-30.82,2.71-39.92,19.06c-4.39,6.73-9.58,9.75-17.11,7.78c-6.72-1.75-11.45,0.91-14.71,7.78
		c-3.24,3.11-6.32,1.67-10.06,1.08c-1.21-0.4-1.68-0.59-2.8-1.16c-6.29-5.24-12.25-4.06-18.98-1.03c-2.61,1.04-4.56,1.6-7.42,1.29
		c-4.29-1.88-6.33-4.85-7.87-9.14c1.55-7.43,5.4-11.79,13.34-12.78c4.83-5.75,11.74-6.89,17.74-10.82c4.11-2.46,4.75,0.65,5.76,2.48
		c1.29,2.33,1.92,5.15,5.99,5.32c5.94-0.78,10.5-2.81,14-7.55c-1.22-4.78-7.18-4.33-8-9.55c0.89-2.12,2.15-2.75,4.48-2.45
		c9.36-1.64,18.01-3.57,27.5-5.74c1.52-0.64,2.19-1.05,3.44-1.47c2.58-0.16,4.56-0.3,7.27-0.63c3.54-2.35,6.56-2.67,10.56-0.6
		c4.45,0.59,8.1,0.63,12.44,0.8C257.81,224.69,259.83,224.35,262.31,225.06z"/>
	<path class="st27" d="M190.34,233.83c3.17,3.32,8.71,1.43,10.49,7.01c-3,6.5-10.22,6.91-15.52,11.46
		c-11.95,5.89-7.16-6.57-11.92-9.45c-0.21-1.04,0.22-1.83,0.45-3.08c4.47-1.82,9.13-3.19,14.39-5.08
		C189.22,233.82,189.6,233.48,190.34,233.83z"/>
	<path class="st28" d="M140.98,264.95c2.38,3.28,4.61,5.98,7.14,9.38c2.05,7.37-3.17,9.57-8.1,12.82
		c-7.49,2.02-12.95,1.92-11.65-8.12c0.95-6.34,8.47-6.85,8.75-13.18c-0.44-1.06-0.68-1.37-0.68-2.23c0.61-0.67,0.99-0.8,1.96-0.84
		C139.73,263.21,140.34,263.71,140.98,264.95z"/>
	<path class="st29" d="M141.49,264.89c-1.19,0.62-2.02,0.6-3.14,0.26c-1.04-0.28-0.37-2.91-1.68-0.71c0.31,0.54,0.25,0.59,0.26,0.63
		c-2.22-1.33-5.49-0.63-7.04-3.33c0.56-4.74,6.8-4.76,7.5-10.02c3.15-4.22,6.07-7.93,12.22-5.42c0.76,3.14,1.8,5.17,4.74,6.79
		C149.5,255.69,145.96,260.32,141.49,264.89z"/>
	<path class="st23" d="M150.26,246.82c-4.69-1.25-7.46,2.81-12.01,4.06c-0.59-3.6-4.18-3.81-6.31-5.69
		c4.39-11.79,13.66-6.22,21.94-5.46c1.98,3.96-2.11,3.73-3.17,6.32C150.34,246.63,150.3,246.76,150.26,246.82z"/>
	<path class="st30" d="M128.44,278.4c0.03,7.58,3.91,9.08,11.24,6.77c3.1,5.48,0.92,10.4-1.63,15.95c-2-0.04-3.35-0.69-5.17-1.68
		c-3.73-4.59-6.99-8.82-10.25-13.79c0.01-3.28,1.68-4.78,4.03-6.57C127.22,278.72,128.04,278.52,128.44,278.4z"/>
	<path class="st31" d="M260.08,214.31c0.85,0.71,0.92,1.11,0.89,2.12c-5.18,0.55-10.25,0.49-16.26,0.57
		c-3.7,2.39-6.7,2.85-10.77,0.81c-2.46-0.86-4.12-1.18-5.78-1.5C238.43,212.96,248.66,210.31,260.08,214.31z"/>
	<path class="st29" d="M191.23,234.14c-0.55,0.38-1.48,0.21-1.94,0.11c-3.59-2.38-4.86-5.59-5.11-10.09
		c0.13-1.53,0.52-2.14,1.64-2.77c5.67,3.29,9.24-5.47,15.35-1.93c-1.85,3.96-7.37,5.56-6.25,11.19
		C193.86,232.15,192.82,232.95,191.23,234.14z"/>
	<path class="st11" d="M227.9,200.08c4.38-1.74,7.53-8.38,12.62-4.89c3.93,2.69,3.97,7.63,2.09,12.89
		C237.24,205.92,233.39,201.58,227.9,200.08z"/>
	<path class="st11" d="M233.14,217.98c2.96-0.89,5.92-1.05,9.75-1.03c0.87,1.69,0.87,3.2,0.87,5.46c-2.96,0.83-5.92,0.9-9.75,0.8
		C233.14,221.59,233.14,220.15,233.14,217.98z"/>
	<path class="st20" d="M126.43,278.68c-0.33,1.94-1.44,3.84-3.18,5.99c-2.4-0.75-4.7-1.85-3.88-4.19
		C120.41,277.49,123.43,278.93,126.43,278.68z"/>
	<path class="st29" d="M215.29,218.9c-2-0.07-3.3-0.3-5.19-0.63c1.85-4.4,5.27-4.13,8.36-4.8
		C219.35,216.35,217.65,217.54,215.29,218.9z"/>
	<path class="st11" d="M211.5,196.35c1.55-0.18,2.73,0.18,4.27,1.05c-1.02,3.15-3.13,5.77-6.07,4.03
		C206.56,199.58,210.1,198.29,211.5,196.35z"/>
	<path class="st29" d="M150.89,246.46c-0.85-2.49,1.07-3.71,3.21-5.59c1.23-0.59,2.09-0.64,3.98-0.34
		C158.78,245.8,154.76,245.55,150.89,246.46z"/>
	<path class="st20" d="M186.03,220.79c0.1,1.15-0.31,1.7-1.38,2.36c-1.58-0.54-2.46-1.55-1.39-2.77
		C183.62,219.97,184.86,220.33,186.03,220.79z"/>
	<path class="st29" d="M158.53,240.2c0.19-1.33-0.04-3,1.83-2.87c0.48,0.03,1.37,0.97,1.29,1.19c-0.29,0.76-0.93,1.39-1.98,2.21
		C159.12,240.86,158.74,240.41,158.53,240.2z"/>
	<path class="st29" d="M173.53,239.32c-0.8-1.56-2.66-2.93-0.57-6.32c0.32,2.27,0.5,3.56,0.68,5.57
		C173.64,239.31,173.46,239.26,173.53,239.32z"/>
	<path class="st29" d="M180.38,229.44c-0.25-0.78,0.12-1.68,0.48-2.59C182.22,227.6,181.63,228.45,180.38,229.44z"/>
	<path class="st19" d="M121.21,272.68c0.03-0.5,0.3-0.77,0.57-1.05C121.67,272.06,121.56,272.48,121.21,272.68z"/>
	<path class="st29" d="M225.12,223.81c-0.05,0.49-0.7,0.95-1.97,1.34C223.2,224.64,223.86,224.21,225.12,223.81z"/>
	<path class="st29" d="M180.04,229.83c-0.22,0.11-0.53,1.83-0.55-0.09C179.76,229.57,179.95,229.73,180.04,229.83z"/>
	<path class="st32" d="M263.3,372.97c0.06,2.11-0.03,3.26,0.06,4.95c0.27,1.74,0.37,2.93,0.66,4.69
		c-6.92,6.36-13.32,5.14-22.43-4.49c-2.68-2.73-5.06-4.67-7.89-7.24c-6.61-10.64-2.41-19.22,4.12-26.69
		c6.06-6.93,13.72-11.24,24.32-6.88C262.99,349.26,263.07,360.63,263.3,372.97z"/>
	<path class="st33" d="M211.99,384.27c-6.22-6.08-12.12-12.86-18.33-20.29c0.04-3.29,1.36-5.34,4.16-7.24
		c4.19-1.31,8.2,1.31,12.11-2.18c7.84-3.56,15.27-8.03,20.43,3.59c0.63,3.05,0.68,5.29-0.13,8.31
		C220.81,369.23,215.37,375.13,211.99,384.27z"/>
	<path class="st19" d="M230.25,367.73c-0.56-2.65-0.77-4.82-1.13-7.79c-1.15-18.75,9.77-30.33,28.89-30.53
		c1.89,0.62,2.79,1.27,4.01,2.83c0.62,1.77,0.73,2.87,0.87,4.8c-19.6-0.48-28.77,8.96-29.62,32.26
		C232.38,369.58,231.5,368.9,230.25,367.73z"/>
	<path class="st19" d="M240.99,378.01c6.75,3.73,12.9,9.06,22.45,5.51c0.7,1.21,0.63,2.76-0.02,4.83
		c-8.62,0.48-17.02,1.91-22.87-5.91C239.36,380.84,240.38,379.91,240.99,378.01z"/>
	<path class="st7" d="M261.36,331.2c-18.68,0.63-25.95,6.68-32.16,27.2c-4.75-9.5-11.64-4.22-18.79-1.68
		c-5.91-3.1-8.12-8.96-12.54-13.96c-3.5-7.71-8.19-12.17-16.69-11.13c-3.11,0.38-6.45,0.25-8.01-3.92c1-1.6,1.76-2.49,2.69-3.96
		c2.24-3.71,5.8-4.73,9.46-6.91c7.1-1.84,11.54-8.26,19.52-7.27c3.77,2.29,1.99,6.69,5,9.06c1.49-4.37-0.81-7.25-3.42-10.86
		c-1.41-12.59,0.63-14.97,16.58-19.7c4.5-0.32,7.42,1.69,10.41,3.35c7.14,3.96,14.56,6.23,23.57,4.42c2.3,0.67,3.48,1.7,5.18,3.34
		c0.64,9.82,0.73,19.08,0.66,29.32C262.44,329.91,262.21,330.35,261.36,331.2z"/>
	<path class="st34" d="M174.16,322.55c-4.51,0.56-8.29,0.68-13.01,0.67c-3.23-2.09-6.03-3.62-6.86-7.67
		c0.73-6.54-5.96-9.41-5.59-15.64c0.47-1.25,0.92-1.72,1.3-2.23c0.83-1.14-0.02,0.53,0.66-0.7s1.51-1.62,0.41-0.97
		c-0.79,0.47,0.15,1.41-1.36,1.79c-2.7,0.59-4.47-0.21-6.48-2.21c-1.33-9.21,4.48-14.38,10.05-20.41c7.44-2.61,14.3-3.12,21.95-1.46
		c0.66,0.47,0.51,0.54,0.54,0.46c3.43,3.03,8.03,4.67,11.18,9.31c0.71,1.15,0.95,1.64,1.44,2.93
		C190.12,301.22,190.62,314.85,174.16,322.55z"/>
	<path class="st35" d="M172.72,327.05c2.89,3.11,6.19,2.78,9.12,2.04c9.99-2.53,14.5,2.93,17.27,12c0.39,3.99,0.95,7.22-0.74,11.12
		c-2.55,3.35-5.16,5.22-9.47,5.19c-1.54-0.32-2.1-0.69-2.52-1.88c-0.34-0.84-0.62-1.17-1.18-2.07c-0.27-0.58-0.85-1.45-0.94-1.96
		c-0.48-1.14-0.92-1.72-1.88-2.57c-0.45-0.31-0.3-0.25-0.37-0.21c-0.99-1.33-2.21-2.44-3.89-3.96c-3.94-2.92-7.68-5.2-9.23-10.4
		c-1.16-2.24-1.3-3.86-0.15-6.24C170.13,327.31,171.07,327.2,172.72,327.05z"/>
	<path class="st36" d="M174.08,323.05c11.62-9.42,14.13-22.21,12.29-37.53c3.82-2.58,5.69-0.19,7.85,3.23
		c2.76,11.44,1.67,21.14-7.8,29.32c-3.6,1.83-5.29,5.24-9.68,5.09C175.61,323.17,175.17,323.15,174.08,323.05z"/>
	<path class="st37" d="M156.09,314.3c0.27,3.53,2.36,5.36,4.04,8.12c-1.84,1.01-3.59,0.79-5.55-1.13c-0.77-0.67-0.94-1.01-1.6-1.61
		c-0.49-0.27-0.6-0.86-0.9-0.92c-0.47-0.38-0.65-0.7-1.3-1.28c-0.48-0.27-0.53-0.79-0.79-0.84c-0.49-0.41-0.72-0.78-1.43-1.59
		c-1.62-1.68-2.77-2.91-4.55-4.37c-1.54-1.6-3.24-2.32-3.98-4.6c-0.21-0.59,0.16-1.03,0.11-1.32c0.2-0.69,0.44-1.1,1.34-1.81
		c2.63-0.73,4.37-0.11,6.51,1.42c1.99,2.02,2.91,4.06,5.14,5.83C154.57,311.5,155.21,312.6,156.09,314.3z"/>
	<path class="st38" d="M188.41,357.76c2.19-2.03,4.68-3.44,7.88-4.92c2.1,0.35,2.89,1.32,3.1,3.3c-1.77,2.59-3.37,4.54-5.49,6.86
		C191.82,361.69,190.26,360.03,188.41,357.76z"/>
	<path class="st19" d="M168.46,327.36c0.48,1.62,0.23,3.19,0.02,5.55c-2.92,0.68-4.93-1.06-6.89-2.74
		C162.73,326.44,165.53,327.62,168.46,327.36z"/>
	<path class="st38" d="M177.74,345.1c1.94-0.65,3.72-0.19,4.17,2.94C180.06,348.49,177.74,348.85,177.74,345.1z"/>
	<path class="st19" d="M139.72,306.29c1.14,0.47,2.17,1.75,3.44,3.59c-0.61,0.54-1.46,0.52-2.94,0.48
		C139.59,309.26,139.59,308.18,139.72,306.29z"/>
	<path class="st38" d="M184.94,353.32c0.46-0.12,0.83,0.32,1.22,1.27C185.75,354.71,185.31,354.31,184.94,353.32z"/>
	<path class="st38" d="M182.08,349.17c0.44-0.12,1.05,0.31,1.86,1.28C183.51,350.56,182.88,350.15,182.08,349.17z"/>
	<path class="st19" d="M152.6,319.77c0.52-0.43,0.98-0.19,1.33,0.77C153.44,320.85,153.02,320.58,152.6,319.77z"/>
	<path class="st19" d="M150.43,317.57c0.49-0.42,0.95-0.19,1.32,0.72C151.25,318.65,150.83,318.4,150.43,317.57z"/>
	<path class="st19" d="M148.21,315.05c0.5-0.25,0.99,0.11,1.45,1.09C149.09,316.45,148.62,316.09,148.21,315.05z"/>
	<path class="st39" d="M263.26,255.09c0.03,9.35-0.15,18.72-0.48,28.96c-3.4,3.94-7.3,3.44-11.12,2.66
		c-5.7-1.17-11.2-0.56-17.5,1.35c-9.82-2.8-14.07-8.64-13.77-19.67c0.26-9.69,2.86-18.69,12.97-24.21c2.03-0.66,3.48,0.85,5.15-1.07
		c1.6-1.53,2.92-1.92,5.09-1.47c5.25,6.1,12.07,8.78,18.57,13.12C262.68,255.27,263.06,255.12,263.26,255.09z"/>
	<path class="st19" d="M238.06,245.04c-17.07,7.36-20.36,30.88-5.76,41.91c9.29,3.43,18.7,2.28,27.93,5.99
		c0.61,0.6,0.66,1.28,0.63,1.62c0,1.26-0.39,1.96-1.79,2.5c-12.78,3.45-23.27-0.5-33.81-7.5c-4.47-1.96-7.88-4.1-10.41-8.42
		c-1.2-7.48-1.76-14.17,2.41-21.03c12.68-23,25.53-28.8,44.77-20.17c0.23,1.3-0.32,2.46-1.14,4.2c-5.55,3.29-10.58,1.58-16.33-0.79
		c-1.91-0.29-3.08-0.1-4.68,0.5C239.18,244.59,238.91,244.91,238.06,245.04z"/>
	<path class="st40" d="M261.12,292.84c-9.41-0.69-19.52,3.6-27.85-4.79c8.23-10.08,18.25-2.6,28.46-3.14
		C263.06,287.46,263.36,289.98,261.12,292.84z"/>
	<path class="st41" d="M258.75,297.69c0.21-1.05,0.75-1.53,1.68-2.39c2.12,0.08,2.62,1.35,2.43,3.71
		C261.51,299.25,260.3,298.76,258.75,297.69z"/>
	<path class="st41" d="M260.98,331.91c-0.04-0.95,0.32-1.5,1.26-2.19c0.53,0.1,0.64,0.44,0.87,1.31c0.12,0.53-0.46,1.09-0.52,1.48
		C262.03,332.79,261.59,332.55,260.98,331.91z"/>
	<path class="st40" d="M243.91,243.59c5.28-3.31,10.14-1.03,15.88,1.01c0.83,0.14,0.88,0.08,0.87,0.09
		c0.53,0.41,1.04,0.85,1.86,1.68c0.38,2.63,0.4,4.92,0.29,8.06C255.03,254.03,247.92,251.87,243.91,243.59z"/>
	<path class="st19" d="M262.46,224.87c-1.41,0.21-3.27-0.18-5.76-0.94C258.06,223.79,260.03,224.03,262.46,224.87z"/>
	<path class="st19" d="M262.65,246.24c-0.46,0.28-1.05-0.08-1.77-1.08C261.38,244.81,261.98,245.16,262.65,246.24z"/>
	<path class="st19" d="M141.94,303.6c-0.61,0.55-1.17,0.92-1.5,0.9c-1.02-0.56-1.71-1.09-2.72-2.2c-0.83-5.77,0.62-10.64,2.51-16.28
		c3.67-3.03,6.13-6.08,8.1-10.32c1.66-1.49,3.22-2.31,5.45-3.05c1.49,0.95,1.83,1.96,1.23,3.83c-4.83,5.83-9.72,10.63-11.39,18.28
		C145.28,298.32,144.42,300.76,141.94,303.6z"/>
	<path class="st42" d="M216.94,259.65c-1.52,6.77-0.25,13.55,1.91,21.08c-8.67,2.77-15.92,9.29-26.22,9.12
		c-2.11-2.33-2.36-5.06-5.54-5.77c-0.62,0.46-0.71,0.65-0.62,0.7c-1.61-1.85-2.15-4.02-0.86-7.19c2.77-12.93,6.32-15.78,18.03-12.52
		C209.99,266.84,213.22,264.44,216.94,259.65z"/>
	<path class="st36" d="M155.28,276.93c-0.76-0.74-0.79-1.73-0.82-3.45c7.28-4.21,14.57-7.54,21.66-0.06
		C169.26,275.02,162.64,275.85,155.28,276.93z"/>
	<path class="st43" d="M185.53,253.01c-0.03-9.64,9.71-6.76,14.96-11.36c2.65,0.61,5.32,2.93,2.58,3.77
		C197.03,247.27,192.92,252.95,185.53,253.01z"/>
	<path class="st36" d="M185.42,276.51c1.24,2.59,1.77,4.8,1.72,7.67c-5.32-1.13-8.33-4.93-11.38-9.35
		C179.21,272.85,182.01,274.27,185.42,276.51z"/>
	<path class="st10" d="M137.27,265.03c-0.48-0.51-0.66-0.97-0.85-1.43c0.39,0.04,0.78,0.09,1.42,0.67
		C138.07,264.82,137.55,265.08,137.27,265.03z"/>
	<path class="st44" d="M199.86,356.95c-1.17-1.19-1.69-2.2-2.53-3.7c-0.1-3.82,0.12-7.17,1.07-10.96
		c6.31,2.53,8.88,7.72,11.11,14.02C206.7,363.51,203.57,358.01,199.86,356.95z"/>
	<path class="st45" d="M191.98,290.47c8.2-3.43,14.93-10.95,25.87-9.17c2.51,2.73,6.22,3.23,6.71,7.23
		c-2.38,3.41-5.99,3.7-9.16,4.68c-7.1,2.19-8.41,7.23-7.9,16.08c-8.82-0.69-12.87,9.05-21.02,9.3
		C189.31,309.84,195.53,301.73,191.98,290.47z"/>
	<path class="st46" d="M208.01,308.53c8.72,5.36,8.39,11.35-1.41,16.71c-1.86-4.08-1.17-7.99,0.3-12.71
		c0.29-0.78,0.26-1.19,0.16-1.36c-0.56-0.63-0.7-1.09-0.54-1.54c0.16-0.45,0.32-0.67,1.02-0.94
		C208.09,308.43,207.94,308.49,208.01,308.53z"/>
	<path class="st47" d="M142.05,304.11c-0.17-2.4,0.39-4.82,1.26-7.92c2.07-0.17,3.81,0.32,6.26,1.15c-1.16,7.07,8.87,9.1,6.84,16.71
		c-1.05,0.16-2.04-0.51-3.55-1.49c-1.87-1.92-2.92-3.74-4.47-5.97C146.23,305.45,144.5,304.76,142.05,304.11z"/>
	<path class="st47" d="M150.17,297.58c0.26-0.92,0.56-1.8,0.85-2.68c1.39,0.69,0.7,1.47-0.32,2.51
		C150.28,297.67,150.21,297.61,150.17,297.58z"/>
	<path class="st34" d="M148.05,306.81c2.17,0.17,3.73,1.65,4.25,4.76C149.67,311.78,148.62,309.88,148.05,306.81z"/>
	<path class="st40" d="M237.71,245.15c-0.24-0.3,0.69-0.77,1.21-0.82C238.95,244.66,238.45,245.06,237.71,245.15z"/>
	<path class="st7" d="M207.54,308.66c0.61,0.46,0.5,1.13-0.19,2.05C206.96,310.29,206.97,309.59,207.54,308.66z"/>
</g>
</svg>
