<?xml version="1.0" encoding="utf-8"?>
<!-- Generator: Adobe Adobe Illustrator 29.2.0, SVG Export Plug-In . SVG Version: 6.00 Build 0)  -->
<svg version="1.1" id="Layer_1" xmlns="http://www.w3.org/2000/svg" xmlns:xlink="http://www.w3.org/1999/xlink" x="0px" y="0px"
	 viewBox="0 0 1280 720" style="enable-background:new 0 0 1280 720;" xml:space="preserve">
<style type="text/css">
	.st0{fill:#C32A1A;}
	.st1{fill:#C42B1B;}
	.st2{fill:#C32B1C;}
	.st3{fill:#C42C1C;}
	.st4{fill:#0D0D0C;}
	.st5{fill:#070707;}
	.st6{fill:#C32A1B;}
	.st7{fill:#EAA939;}
	.st8{fill:#C62C1C;}
	.st9{fill:#C72D1D;}
	.st10{fill:#070706;}
	.st11{fill:#050505;}
	.st12{fill:#C0231A;}
	.st13{fill:#C83321;}
	.st14{fill:#0E0D0C;}
	.st15{fill:#E5E3E1;}
	.st16{fill:#C12319;}
	.st17{fill:#C32318;}
	.st18{fill:#C31F13;}
	.st19{fill:#19100A;}
	.st20{fill:#111110;}
	.st21{fill:#0F100F;}
	.st22{fill:#C0190D;}
	.st23{fill:#10100F;}
	.st24{fill:#C32B1B;}
	.st25{fill:#C21B0E;}
	.st26{fill:#E7A738;}
	.st27{fill:#DF9D2D;}
	.st28{fill:#E2A12D;}
	.st29{fill:#191612;}
	.st30{fill:#E1A836;}
	.st31{fill:#939390;}
	.st32{fill:#C22E1C;}
	.st33{fill:#E4A131;}
	.st34{fill:#C72E1C;}
	.st35{fill:#E6A53D;}
	.st36{fill:#1B0E04;}
	.st37{fill:#F7D1C5;}
	.st38{fill:#EDAF4B;}
	.st39{fill:#C22D1B;}
	.st40{fill:#D02F1B;}
	.st41{fill:#F2B138;}
	.st42{fill:#EDAD3E;}
	.st43{fill:#1A1305;}
	.st44{fill:#211806;}
	.st45{fill:#E9A534;}
	.st46{fill:#1A1505;}
	.st47{fill:#DA412C;}
	.st48{fill:#C32B1A;}
	.st49{fill:#C42C1B;}
	.st50{fill:#0A0A0A;}
	.st51{fill:#C12819;}
	.st52{fill:#C62D1D;}
	.st53{fill:#16100A;}
	.st54{fill:#C72E1D;}
	.st55{fill:#160F04;}
	.st56{fill:#467147;}
	.st57{fill:#4A7449;}
	.st58{fill:#457247;}
	.st59{fill:#477248;}
	.st60{fill:#4B764B;}
	.st61{fill:#416C42;}
	.st62{fill:#C32C1E;}
	.st63{fill:#537A55;}
	.st64{fill:#416B42;}
	.st65{fill:#C21B0F;}
	.st66{fill:#C1190F;}
	.st67{fill:#4F7A50;}
	.st68{fill:#C74036;}
	.st69{fill:#0B0B0B;}
	.st70{fill:#BA180B;}
	.st71{fill:#F7EEDB;}
	.st72{fill:#100705;}
	.st73{fill:#0C0706;}
	.st74{fill:#CB362E;}
	.st75{fill:#C52B1B;}
	.st76{fill:#C42B1A;}
	.st77{fill:#E8A635;}
	.st78{fill:#C52C1A;}
	.st79{fill:#C42C1A;}
	.st80{fill:#C82F1C;}
	.st81{fill:#291507;}
	.st82{fill:#C52E1F;}
	.st83{fill:#C42F21;}
	.st84{fill:#CA3426;}
	.st85{fill:#C22C1D;}
	.st86{fill:#1A1004;}
	.st87{fill:#211706;}
	.st88{fill:#312407;}
</style>
<g>
	<path class="st24" d="M594.33,538.57c13.54-1.27,26.06-3.53,38.59-3.61c52.88-0.32,105.66-6.04,158.61-2.57
		c45.48,2.98,91.07,3.55,136.4,9.8c24.39,3.36,48.99,5.8,73.29,9.79c14.27,2.34,28.91,4.59,42.38,10.49
		c4.34,1.9,10.17,3.95,8.74,10.55c-1.34,6.18-7.09,7.93-12.24,8.38c-8.2,0.73-16.52,0.19-25.2,2.29
		c12.75,2.89,25.42,6.27,38.28,8.51c11.67,2.04,22.5,6.54,33.64,10.07c4.74,1.5,7.99,5.35,6.91,11.55
		c-1.09,6.27-6.35,5.51-9.99,5.93c-11.2,1.28-22.6-0.96-34.5,1.5c2.94,2.1,6.08,2.21,8.63,4.34c3.31,2.77,4.12,5.42,3.75,9.12
		c-0.4,3.97-3.27,4.84-6.6,5.86c-9.23,2.81-18.51,1.62-27.81,1.02c-11.1-0.71-22.21-1.44-35.78-2.32c7.61,6.26,15.61,4.77,21.68,8.7
		c2.68,1.73,5.88,3.79,9.24,4.93c3.59,1.22,4.77,4.03,4.45,7.65c-0.38,4.26-3.37,6.46-6.93,7.14c-5.6,1.07-11.43,2.16-17.06,1.78
		c-37.59-2.49-75.16-5.33-112.74-8.11c-35.86-2.65-71.76-4.16-107.74-4.29c-56.48-0.21-112.96-0.3-169.37,2.41
		c-27.6,1.33-55.06,5.32-82.66,6.95c-44.07,2.61-87.66,11.41-132.04,9.93c-6.2-0.21-11.99-1.48-17.83-3.44
		c-3.94-1.32-6.13-3.18-6.32-7.42c-0.18-4.02,1.2-6.73,5.02-8.47c6.67-3.04,13.2-6.4,20.42-9.92c-8.09-2.44-16.27,1.08-23.9-2.21
		c-3.83-1.65-8.58-1.23-10.11-6.45c-1.75-5.97,3.69-7.45,8.32-11.5c-11.38,0-20.91-0.13-30.43,0.05
		c-5.96,0.11-11.48-1.72-12.77-7.49c-1.19-5.32,3.33-8.26,8.22-10.73c11.57-5.85,23.95-8.92,36.39-11.91
		c2.72-0.65,5.79-0.14,7.53-3.71c-5.6-1.08-11.07-2.02-16.48-3.23c-3.31-0.74-6.31-2.83-6.93-6.04c-0.66-3.41,1.93-5.67,5.06-7.3
		c12.51-6.52,26.36-8.94,39.84-11.66c31.85-6.41,63.83-12.69,96.05-16.65C531.24,544.51,562.01,538.79,594.33,538.57z"/>
	<path class="st48" d="M359.69,400.74c-25.99,16.43-54.18,22.08-84.44,22.48c-62.92,0.84-118.44-40.57-136.71-98.29
		c-4.71-14.89-5.59-29.96-8.2-45.88c0.48-8.3,0.24-15.68,0.11-23.91C139,161.03,188.08,95.41,271.2,55.59
		c31.1-14.9,65.7-18.38,100.32-8.19c42.35,12.47,57.94,56.93,30.75,93.6c-9.66,13.03-28.86,19.08-43.89,14.67
		c-12.09-3.55-16.09-12.58-9.62-23.41c12.71-21.3-1.22-36.17-20.53-35.35c-28.92,1.22-50.7,15.92-70.59,34.68
		c-30.08,28.37-48.96,63.61-54.75,103.87c-5.94,41.26-2.57,82.08,32.78,111.96c21.48,18.16,46.11,26.27,74.36,17.68
		c3.06-0.93,6.22-1.53,10.03-2.74c4.54-1.48,7.08,1.03,8.93,3.46C338.3,378.06,351.26,387.01,359.69,400.74z"/>
	<path class="st1" d="M799,308.05c2.28,12.74-1.72,19.1-12.93,21.95c-15.48,3.95-27.53-0.46-31.52-11.46
		c-8.42-23.23-16.88-46.45-25.57-70.38c-5.15,2.77-7.81,6.09-8.29,11.41c-1.01,11.41-2.7,22.76-0.59,34.24
		c0.89,4.85,1.42,9.31,5.34,13.37c3.77,3.91,4.25,9.72,1.41,15.04c-2.73,5.12-7,7.58-12.84,7.55c-10.42-0.06-20.85,0.12-31.28-0.03
		c-10.63-0.16-17.04-8.19-11.53-16.95c13.94-22.18,9.7-46.83,11.91-70.56c3.05-32.81,5.27-65.69,7.66-98.56
		c0.7-9.64,0.49-19.35,1.3-28.98c0.44-5.24-1.58-9.05-5.13-12.09c-6.87-5.9-5.36-12.91-0.22-17.46
		c10.57-9.36,23.98-12.43,37.89-10.86c7.6,0.86,11.81,6,10.88,14.29c-2.55,22.71-5.16,45.42-7.49,68.16
		c-1.84,17.99-3.3,36.02-5.09,55.9c11.83-11.95,20.79-23.82,28.03-37.04c1.6-2.92,2.1-5.65,1.02-9.16
		c-3.55-11.53,2.14-19.25,14.35-19.8c4.63-0.21,9.56-0.6,13.9,0.64c15.77,4.5,19.65,17.93,9.68,31.36
		c-10.73,14.46-22.59,27.96-34.78,41.67c11.22,24.78,22.83,49.55,33.51,74.72C790.96,300.48,795.69,302.91,799,308.05z"/>
	<path class="st1" d="M1062.3,129.87c20.41-1.36,39.29,12.63,43.66,34.01c2.07,10.12-6.03,24.62-15.68,27.46
		c-5.79,1.7-11.22,0.7-15.98-3.63c-4.34-3.95-3.88-7.76-1.3-12.43c3.19-5.78,0.28-11.24-4.05-14.13c-4.67-3.12-10.81-3.16-15.94,0.8
		c-9.41,7.25-10.01,18.82-1.99,30.21c9.7,13.79,23.7,23.24,35.13,35.29c13.78,14.53,26.14,29.55,31.01,49.75
		c5.64,23.39-0.86,43.87-16.78,60.02c-16.06,16.28-36.01,21.39-60,15.78c-27.4-6.41-49.57-40.41-37.85-68.56
		c5.93-14.22,18.56-22,32.57-17.36c8.15,2.7,11.38,11.15,7.09,18.53c-7.51,12.92-7.63,19.21,0.11,26.49
		c7.14,6.72,15.21,7.08,23.67,2.39c7.43-4.12,12.65-17.84,10.85-27.17c-3.11-16.09-14.17-26.56-25.55-36.83
		c-12.09-10.91-24.92-20.81-34.03-34.9c-21.47-33.25-7.07-74.64,32.24-85.75C1054.05,128.56,1057.48,133.5,1062.3,129.87z"/>
	<path class="st49" d="M604.68,279.39c1.45,12.16,0.39,23.36,10.56,32.88c6.4,5.99-3.45,20.47-14.75,21.44
		c-11.72,1.01-23.53,0.82-35.3,2.2c-6.02,0.7-12.21-2.24-14.9-8.19c-2.32-5.12-0.86-10.22,3.15-14.75
		c6.69-7.54,7.61-17.25,8.35-26.67c0.73-9.24,0.48-18.57,0.86-28.85c4.26-14,1.26-27.27,1.48-41.3c-0.14-3.11-0.11-5.34,0.15-8.37
		c2.6-6.71,0.96-12.84,0.77-19.54c-0.85-2.2-1.21-3.72-1.44-6.01c2.87-2.72,2.48-5.09,0.28-7.82c-0.99-4.05-3.59-6.39-6.08-8.87
		c-6.67-6.66-6.64-14.24-0.29-20.34c7.66-7.34,16.88-12.34,28.4-9.5c2.04,0.5,4.5,0.71,6.42,0.05c10.36-3.59,12.26,3.11,13.28,10.69
		c0.4,2.99,0.07,6.08,0.07,10.46c9.31-10.1,16.25-20.79,29.48-23.32c17.61-3.36,31.04,3.3,36.27,20.11
		c4.88,15.68,4.59,31.87-3.89,46.63c-4.47,7.78-11.85,13.01-21.09,12.67c-6.89-0.25-12.52-3.85-15.22-11.29
		c-1.54-4.25-0.7-7.48,0.78-11.26c1.93-4.94,4.28-11.09-1.32-14.41c-6.14-3.64-10.44,1.66-14.23,6
		c-8.45,9.72-9.52,21.82-10.75,33.81c-0.44,4.27-0.23,8.61-0.53,13.88C601.77,246.63,603.55,262.63,604.68,279.39z"/>
	<path class="st71" d="M848.23,371.56c7.8,3.4,10.86,16.97,5.85,24.53c-13.99,21.13-28.34,42.02-42.41,63.1
		c-3.06,4.58-5.49,9.58-8.52,14.94c13.36,2.89,26.33,2.22,39.17,1.85c7.76-0.23,9.76,2.41,9.61,9.87
		c-0.5,25.52,2.31,24.69-23.99,22.29c-20.13-1.84-40.21-1.53-60.32-1.74c-8.58-0.09-10.63-3.71-10.61-11.89
		c0.05-12.23,6.09-21.42,12.37-30.82c12.08-18.08,24.25-36.1,36.1-54.34c1.59-2.45,3.89-5.22,2.76-9.57
		c-9.64-2.82-19.85-3.07-30.08-2.21c-15.11,1.26-15.1,1.43-14.97-13.89c0.02-2.51,0.3-5.04,0.11-7.53
		c-0.54-7.18,3.48-10.04,9.79-9.3C797.76,369.76,822.73,367.28,848.23,371.56z"/>
	<path class="st14" d="M282.31,319.11c-14.37-7.78-21.89-21.96-33.32-32.25c-3.53-3.18-6.01-6.4-11.76-7.07
		c-10.81-1.26-19.27-16.83-10.62-27.86c23.54-30.01,53.71-49.66,90.46-60.39c19.65-5.74,39.35-6.32,59.35-6.15
		c17.41,0.15,25.09,8.82,19.13,25.07c-3.51,9.57-3.07,18.62-3.87,28.92c-0.75,0.86-1.35,0.82-2.77,1.12
		c-3.39,0.61-5.45-0.08-6.66-3.43c3.72-14.23,2.88-15.41-11.4-16.5c-1.75-0.13-3.47-0.35-5.83-1.21c-3.03-7.83-3.03-7.83,5.46-10.35
		c-6.31-0.33-12.91,0.45-16.32,8.91c-12.35,5.7-25.31,6.96-37.31,11.85c-20.79,8.46-39.77,19.44-55.8,35.18
		c-11.31,11.1-10.88,14.44,3.24,24.87c7.11,8.31,13.24,16.81,20.17,25.58C284.36,317.2,283.83,318.08,282.31,319.11z"/>
	<path class="st71" d="M601.29,499.86c0,3.8,0,6.62,0,10.02c-8.63,1.49-16.67,2.88-24.71,4.25c-6.19,1.05-9.28-1.58-9.91-7.84
		c-4-39.82-6.5-79.81-12.75-119.39c-1.24-7.85,1.39-11.75,9.77-12.94c7.9-1.12,15.64-1.08,24.52-1.01
		C592.59,415.2,596.94,457.04,601.29,499.86z"/>
	<path class="st48" d="M855.38,257.89c0.47,10.37,0.71,20.04,0.66,29.71c-0.04,8.32,0.72,15.69,6.86,22.78
		c7.44,8.58,0.4,22.59-11.31,23.55c-8.55,0.7-17.29,0.67-25.83-0.21c-16.28-1.67-21.49-12.68-13.39-26.92
		c3.04-5.36,5.03-11.01,4.82-17.35c-0.67-20.44,0.94-40.81,2.32-62.14c12.61-2.17,17.5,1.69,16.01,12.49
		c-1.07,7.76,2.85,10.21,9.31,10.83c2.42,0.23,4.9-0.63,8.07,0.35C855.39,252.94,854.75,255.17,855.38,257.89z"/>
	<path class="st51" d="M854.27,251.8c-9.63,3.15-17.88,2.66-23.58-6.51c4.64-12.5,4.64-12.5-10.15-18.83
		c-0.8-2.42-0.84-4.72-0.68-7.87c3.97-4.26,7.17-7.78,2-13.31c-0.67-2.79-0.81-5.1-0.7-8.25c3.26-4.53,8.63-2.31,12.43-5.9
		c-0.81-8.85-8.89-10.53-15.64-14.36c-2-1.15-3.3-2.15-4.63-3.75c0.12-13.25,6.5-16.92,17.65-11c10.15,5.38,18.68,12.89,28.29,20.22
		c0.45,7.07,0.04,14.04-0.69,21.8c-1.37,1.77-2.47,2.76-3.88,3.12c-6.93,1.76-8.38,7.7-9.02,13.25c-0.72,6.21,6.37,4.33,9.74,7.6
		c0.61,4.91,0.68,9.32,0.57,14.66c-0.19,0.93-0.78,1.75-1.2,2.02c-0.63,1.01-0.45,1.64,0.14,2.71
		C854.92,249.11,854.93,250.26,854.27,251.8z"/>
	<path class="st52" d="M817.06,112.18c-4.87-13.71,4.18-30.9,17.24-34.81c11.72-3.51,21.85,0.12,28.36,11.97
		c6.95,12.65,1.34,29.75-11.86,36.19C836.25,132.64,823.3,127.84,817.06,112.18z"/>
	<path class="st53" d="M281.64,320.15c0.43-1.45,0.94-2.15,2.02-3.17c7.17-4.27,15.2-5.49,20.18-12.54
		c7.21-10.2,6.82-20.64-2.16-28.73c-8.26-7.44-17.01-6.66-26.59,2.37c-2.33,2.19-3.69,5.32-7.5,6.93c-1.8-0.27-2.64-0.89-3.67-2.43
		c2.63-13.75,12.83-21.88,26.63-22.24c11.97-0.31,24.01,8.63,27.48,20.41c4.31,14.63-0.33,28.08-12.62,37.15
		c-2.53,1.87-6.04,2.49-7.49,5.58c-0.05,2.66,1.83,3.97,3.32,5.43c21.31,20.82,40.28,43.94,62.28,64.05
		c9.22,8.43,13.2,18.34,13.91,30.26c0.2,3.43-0.56,7.29,3.76,10.48c8.46-17.57,12.19-35.47,9.55-55.38
		c1.44-2.26,2.98-2.55,5.41-1.65c3.66,12.29,4.45,24.3,4.38,36.42c-0.02,2.61-0.04,5.61-2.5,6.57c-7.09,2.77-5.67,8.69-5.86,14.05
		c-0.22,6.19-2.95,10.02-9.46,10.56c-6.61,0.55-10.9-2.82-12.43-8.76c-1.59-6.16-2.41-12.6-2.84-18.96
		c-0.39-5.64-2.48-10.13-7.09-14.5c-13.22-13.51-25.77-26.49-38.95-39.81C307.74,348.23,294.73,334.57,281.64,320.15z"/>
	<path class="st54" d="M992.49,130.12c0.92-5.7,0.59-9.15-5.56-11.16c-10.93-3.56-11.26-13.27-9.72-22.12
		c1.68-9.67,9.14-15.73,18.59-16.58c8.61-0.77,14.54,3.83,18.63,12.62c7.06,15.18,0.19,27.48-6.1,40.71
		C1001.77,137.51,997.47,133.82,992.49,130.12z"/>
	<path class="st55" d="M397.06,376.21c-1.22,0.93-2.2,0.92-3.66,0.91c-8.26-2.2-17.6,2.02-24-6.61c2.37-4.97,6.54-4.89,10.4-4.93
		c6.21-0.06,9.21-2.71,9.04-9.09c-0.18-7.13,0.02-14.27-0.1-21.41c-0.12-7.21-4.28-9.14-10.65-8.39
		c-12.11,1.41-19.97,15.23-15.18,26.55c2.1,4.95,6.35,8.67,7.45,14.73c-7.08,5.01-11.11,0.5-14.67-4.09
		c-12.72-16.38-2.94-41.47,18.42-47.79c3.39-1,7.18-0.59,10.89-3.27c0.66-6.93-0.59-14.18-1.16-21.75
		c-7.91-0.98-16.18,3.82-23.01-3.73c-0.11-1.41,0-1.99,0.68-3.23c1.49-1.21,2.41-1.87,3.46-1.97c20.56-1.91,19.2-4.27,19.34-24.58
		c0.04-5.59-0.87-11.33,2.26-17.39c1.27-0.62,2.01-0.51,3.84-0.15C393.45,285.28,395.38,330.28,397.06,376.21z"/>
	<path class="st56" d="M300.01,523.54c-8.43-6.44-8.37-10.46,0.15-14.22c13.38-5.9,27.88-8.35,42.04-11.31
		c10.89-2.27,21.78-7.8,37.2-2.41C352.46,508.43,327.4,517.9,300.01,523.54z"/>
	<path class="st48" d="M860.25,181.67c-3.32,1.62-7.36,2.53-9.03-0.47c-4.69-8.47-13.83-10.65-20.77-15.86
		c-8.86-6.64-13.27-4.94-16.67,6.5c-4.57-11.54-1.78-16.89,11.37-22.2c17.4-7.03,31.15-4.76,37.37,6.97
		c-1.58,5.25-8.02,8.76-2.37,15.24C860.42,175.35,860.41,178.17,860.25,181.67z"/>
	<path class="st57" d="M325.93,462.58c11.44,1.87,20.79,6.79,30.47,10.91c-0.38,4.33-3.26,4.96-6.06,4.76
		c-12.12-0.87-24.28-1.53-36.29-3.26c-4.58-0.66-12.22-0.99-10.54-8.84c1.64-7.66,8.11-7.89,14.53-6.32
		C320.45,460.43,322.76,461.45,325.93,462.58z"/>
	<path class="st58" d="M338.61,554.66c-8.44,0.4-12.8-5.12-8.04-10.09c9.72-10.15,21.3-18.83,36.48-21.3
		C360.31,535.98,350.11,545.4,338.61,554.66z"/>
	<path class="st59" d="M1046.31,516.78c-3.74-3.31-7.79-5.18-9.62-9.31c3-6.97,7.76-2.06,10.61-0.87
		c9.02,3.77,17.69,8.44,26.26,13.2c3.02,1.68,6.56,4.86,4.3,8.58c-1.92,3.16-5.68,4.83-10.17,2.62
		C1060.15,527.3,1053.14,522.93,1046.31,516.78z"/>
	<path class="st60" d="M1066.04,439.83c5.41-0.92,11.53-4.63,13.61,2.28c1.94,6.47-3.59,8.69-9.01,10.7
		c-9.93,3.67-19.9,6.77-32.99,7.38C1045.49,449.42,1056.7,446.46,1066.04,439.83z"/>
	<path class="st61" d="M1078.94,492.09c-18.13-2.39-36.01-3.14-52.63-10.72c17-5.03,34.11-2.85,52.07-1.49
		C1081.48,484.03,1081.53,487.6,1078.94,492.09z"/>
	<path class="st48" d="M856.16,227.64c-5.84,0.49-13.5,2.61-14.52-5.57c-1.07-8.57,6.87-16.71,15.71-17.25
		C857.62,212.14,856.99,219.46,856.16,227.64z"/>
	<path class="st62" d="M991.38,129.88c6.09-1.71,9.32,4.26,15.39,3.96c-3.83,8.87-5.86,10.65-18.19,16.71
		C985.15,147,985.15,147,991.38,129.88z"/>
	<path class="st48" d="M817.46,177.43c10.37-3.73,14.94,4.59,19.92,10.8c2.44,3.05-0.42,6.9-4.53,7.69
		c-3.1,0.6-6.39,0.22-10.52,0.27C819.71,190.3,821.04,183.78,817.46,177.43z"/>
	<path class="st63" d="M1079.34,480.56c-17.43-0.13-34.18-0.14-51.95-0.12c-1.19-3.39,0.87-3.96,3.74-3.91
		c15.97,0.28,31.97-0.86,48.68,1.38C1081.01,479.28,1080.86,480.06,1079.34,480.56z"/>
	<path class="st64" d="M1090.89,479.3c2.66-0.23,4.79-0.02,6.9,0.29c4.9,0.73,9.58,2.01,8.63,8.4c-0.83,5.56-5.31,6.01-9.84,5.89
		c-4.65-0.12-9.31-0.27-14.93-0.56C1082.54,487.74,1088.41,485.19,1090.89,479.3z"/>
	<path class="st65" d="M605.26,279.17c-1.06,0.54-2.78,0.14-2.82-0.39c-1.24-15.87-3.21-31.78,1.76-47.81
		C605.13,246.52,605.26,262.35,605.26,279.17z"/>
	<path class="st66" d="M563.66,216.1c5.03,12.69,4.23,26.27,0,40.13C563.02,243.29,563.2,230.11,563.66,216.1z"/>
	<path class="st67" d="M1090.55,478.56c0.22,6.55-0.56,12.76-9.36,14.06c-0.52,0.55-1.36,0.8-1.36,0.8s-0.87-0.07-1.26-0.28
		c-0.28-3.68-0.18-7.15,0.01-11.66c0.7-1.3,1.2-1.7,1.79-2.69C1083.61,478.35,1086.64,478.33,1090.55,478.56z"/>
	<path class="st51" d="M860.95,171.98c-9.87-4.33-9.71-7.59,0.9-14.26C864.66,162.28,862.29,166.8,860.95,171.98z"/>
	<path class="st68" d="M129.91,255c4.53,6.62,2.78,14.26,1.06,22.49C127.46,270.76,129.07,263.21,129.91,255z"/>
	<path class="st48" d="M821.06,205.59c4.57-0.51,6.93,1.68,6.76,6.08c-0.15,3.87-2.4,5.78-6.97,6.05
		C820.31,213.96,820.55,210.17,821.06,205.59z"/>
	<path class="st66" d="M564.37,188.53c4.08,4.9,2.44,11.11,0.77,17.87C564.4,201.15,564.29,195.32,564.37,188.53z"/>
	<path class="st70" d="M853.49,244.12c0.36-0.54,1.33-0.54,1.81-0.53c0.56,4.39,0.64,8.77,0.57,14.08c-1.9-0.31-1.99-2.17-2.03-4.76
		c0-2.32,0.01-3.94,0.01-6.37C853.62,245.37,853.38,245.01,853.49,244.12z"/>
	<path class="st66" d="M563.01,175.11c3.18,0.47,4.52,2.38,1.43,5.91C563.45,179.65,563.16,177.84,563.01,175.11z"/>
	<path class="st71" d="M785.11,571.95c0.6-3.37,0.9-5.89,1.69-8.24c1.9-5.63,6.69-5.99,11.41-5.27c5.06,0.77,6.99,3.8,6.05,9.22
		c-1.71,9.8-2.88,19.7-4.11,29.57c-0.4,3.17-0.93,6.54-0.26,9.57c1.03,4.69,1.46,10.98,7.86,11.26c6.18,0.28,7.7-4.99,10.06-10.1
		c5.98-12.95,2.46-26.88,5.51-40.12c1.72-7.46,5.57-8.02,11.37-7.63c6.44,0.43,7.5,4.2,6.46,9.65c-2.62,13.64-1.89,27.64-6.13,41.22
		c-5.34,17.12-16.07,26.67-30.65,24.44c-14.19-2.17-24.3-17.11-22.7-33.96C782.57,591.99,783.89,582.45,785.11,571.95z"/>
	<path class="st71" d="M603.5,571.16c15.4-18.79,36.74-11.39,44.04,7.39c6.66,17.15,2.26,32.39-6,46.89
		c-5.58,9.79-18.48,13.29-29.82,10.23c-9.82-2.65-18.15-14.51-18.98-27.65C591.89,594.8,595.64,582.77,603.5,571.16z"/>
	<path class="st71" d="M910.98,604.13c-6.24,6.29-12.7,10.06-21.14,10.47c-7.27,0.35-13.13,2.93-12.46,12.11
		c0.17,2.39-1.11,4.86-1.58,7.31c-0.93,4.9-4.08,6.31-8.64,5.77c-5.09-0.61-7.32-3.07-7.27-8.52c0.14-15.84,4.71-31.08,5.92-46.76
		c0.19-2.49,1.6-5.4,0.73-7.36c-5.48-12.45,3.05-14.31,11.72-15.58c9.81-1.44,19.25,0.83,27.71,5.68
		C918.35,574.37,923.51,587.74,910.98,604.13z"/>
	<path class="st71" d="M672.54,599.41c0.35-11.23,4.27-21.35,0.17-31.7c-0.97-2.45-0.22-5.41,2.58-7.56
		c11.06-8.54,39.07-4.4,46.88,7.12c10.99,16.24-1.67,40.88-22.61,42.05c-9.81,0.55-12.52,4.1-11.86,12.81
		c0.24,3.16,0.3,6.69-0.88,9.5c-1.8,4.3-6.23,4.24-10.24,3.85c-4.35-0.43-4.76-3.88-4.73-7.13
		C671.95,619.05,672.3,609.74,672.54,599.41z"/>
	<path class="st71" d="M522.07,582.24c-1.49-8.59,2.21-11.59,9.57-14.12c12.36-4.24,24.21-4.76,34.91,2.24
		c14.96,9.79,10.79,33.46-6.85,43.87c-5.4,3.19-11.02,4.71-16.94,4.62c-7.1,7.43,8.26,29.26-16.91,23.99
		c-4.13-9.27-1.69-18.21-2.25-26.95C522.9,604.97,524.63,593.97,522.07,582.24z"/>
	<path class="st72" d="M943.69,599.6c14.23,1.62,28.53-1.63,40.99,6.94c-3.15,6.07-7.65,7.2-12.96,6.63
		c-9.21-0.98-18.16-3.97-27.58-3.51c-3.39,0.17-5.45-2.13-6.01-5.07C937.52,601.42,940.51,600.68,943.69,599.6z"/>
	<path class="st73" d="M494.99,607.24c0.34,2.78-0.17,4.87-1.93,5.41c-15.02,4.61-30.18,8.09-46.15,2.99
		C460.92,603.24,477.72,604.36,494.99,607.24z"/>
	<path class="st74" d="M521.52,582.43c5.45,0.69,3.64,5.22,3.66,8.82c0.13,16.27,0.07,32.54,0.13,49.83
		c-5.6-0.45-3.75-5.11-3.79-8.65C521.37,616.11,521.48,599.78,521.52,582.43z"/>
	<g>
		<g>
			<path class="st75" d="M539.08,284.84c-1.21-7.32-3.46-13.03-12.21-13.38c-8.54-0.35-12.38,4.94-14,12.02
				c-1.91,8.32-6.43,14.58-13.08,19.52c-8.06,5.97-22.21,5.11-27.15-2.46c-6.41-9.83-12.06-20.27-8.68-32.79
				c5.71-1.63,11.21-3.2,16.71-4.76c35.41-10.03,60.26-38.98,57.75-74.31c-2.61-36.59-34.27-61.38-71.25-42.3
				c-18.9,9.75-30.18,26.42-38.74,45.14c-11.56,25.29-14.15,52.07-12.88,79.46c1.09,23.31,7.28,44.66,24.27,62.65
				c16.78,15.12,35.64,19.38,56.33,13.34C522.89,339.17,543.22,309.97,539.08,284.84z M461.34,216.95
				c4.16-11.44,6.42-22.56,12.33-32.4c3.86-6.42,8.91-12.3,16.26-11.31c8.3,1.12,10.03,8.87,10.38,16.54
				c1.08,23.9-12.28,41.13-38.59,49.01C459.51,231.84,462.45,224.73,461.34,216.95z"/>
		</g>
	</g>
	<g>
		<g>
			<path class="st76" d="M985.76,272.5c-1.83-5.84-5.4-9.05-11.24-9.47c-5.69-0.41-9.21,2.87-11.02,8.03
				c-1.41,4.03-2.58,8.15-3.95,12.2c-4.68,13.89-17.49,20.27-30.09,14.39c-11.94-10.16-15.66-22.64-14.71-36.74
				c2.05-0.87,3-1.52,4.03-1.68c38-5.92,72.08-40.99,62.99-84.45c-5.53-26.46-33.01-43.98-58.04-33.87
				c-12.99,5.24-22.73,14.06-29.71,25.65c-25.94,43.1-27.6,89.38-13.42,135.92c10.98,36.04,49.56,49.73,79.26,30.91
				C979.31,321.06,991.73,291.5,985.76,272.5z M918.92,192.95c4.56-8.01,6.29-16.76,14.08-21.88c5.84-3.84,9.84-2.74,13.37,2.82
				c13.23,20.82-8.79,56.74-31.22,56.57C911.78,217.8,916.71,205.94,918.92,192.95z"/>
		</g>
	</g>
	<g>
		<g>
			<path class="st71" d="M989.8,512.85c-5.69-40.28-10.84-80.64-17.69-120.72c-1.87-10.93-14.88-7.07-22.81-9.51
				c-5.57-1.72-13.26-4.67-17.55,1.56c-4.32,6.26-7.63,13.52-9.62,21.99c-2.13,4.98-3.92,9.19-5.61,13.43
				c-10.95,27.52-21.86,55.06-32.83,82.57c-1.04,2.61-3.65,5.93-0.61,7.71c7.93,4.66,17.06,5.08,26.01,4.93
				c6.81-0.11,7.81-6.94,8.26-11c1.5-13.5,9.29-14.12,19.65-11.5c2.08,0.53,4.32,1.16,6.38,0.89c10.69-1.4,12.5,4.17,12.12,13.34
				c-0.54,13.19,2.68,16.41,15.89,16.89c5.92,0.22,12.08,1.76,18.48-1.05C989.86,519.19,990.24,515.96,989.8,512.85z M931.07,462.46
				c4.95-13.23,9.81-26.24,15.1-40.39c1.32,8.16,2.45,15.19,3.95,23.12c0.36,7.3,0.36,13.69,0.36,20.78
				C944.1,466.23,938.01,465.05,931.07,462.46z"/>
		</g>
	</g>
	<g>
		<g>
			<path class="st71" d="M530.07,417.45c-2.78-15.29-14.68-27.96-29.79-31.9c-23.51-6.12-44.79,3.73-66.92,7.12
				c0,5.54-0.8,9.98,0.12,14.03c8.61,37.9,13.37,76.48,20.56,114.63c1.47,7.77,4.32,9.96,12.25,7.52c3.57-1.16,6.38-2.91,9.02-2.68
				c13.35,1.17,12.55-7.29,11.15-15.93c-1.14-7.02-4.06-13.64-4.1-21c-0.02-4.81,1.37-7.32,6.06-8.29
				C520.51,474.32,536.47,452.62,530.07,417.45z M496.42,444.52c-4.63,8.58-12.28,9.42-20.97,11.18
				c-1.87-13.85-3.64-27.06-5.49-40.77c7.77-4.08,16.09-5.58,22.75,1.85C499.64,424.5,503.12,433.66,496.42,444.52z"/>
		</g>
	</g>
	<path class="st77" d="M361.12,286.09c9.24,5.57,17.6,2.34,26.63-1.18c0.59,11.55,1.14,22.49,1.7,33.47
		c-20.08-0.39-33.1,8.02-36.24,23c-2.53,12.08,3.29,22.65,16.12,27.57c2.03,5.71,7.2,2.96,10.74,4.02c4.01,1.2,9.01-2.8,12.53,3.25
		c0.98,11.59,1.59,22.29,2.37,32.97c0.37,5.04,0.17,9.36-6.67,8.28c-3.09,7.21,3.41,17.08-6.56,22.3c-5.88-2.55-7.68-7.02-7.3-12.86
		c1.03-15.54-6.8-26.22-17.62-36.7c-22.51-21.82-43.78-44.91-65.85-67.78c2.83-4.34,8.19-3.04,11.8-5.59
		c10.83-7.64,16.66-20.57,13.18-33.3c-2.93-10.75-10.5-17.69-21.38-20.25c-10.3-2.42-22.35,4.93-30.18,18.28
		c0.13,1.05,0.44,1.35,0.92,2.29c0.27,1.55-0.05,2.32-1.16,2.47c-1.28,1.39-2.11,3.27-2.95,5.16c-0.61-0.24-1.39-0.33-1.8-0.76
		c-13.85-14.67-13.99-14.82,1.03-29.15c25.49-24.32,56.16-38.18,91.63-44.02c3.75-2.25,6.8-2.76,10.9-0.66
		c7.89,0.55,14.97,0.55,22.45,0.55c0.48,6.28,4.44,11.7-2.04,17.21c-10.2-1.89-18.66-2.71-26.96,3.26c-0.87,0.73-1.2,1.04-2.03,1.79
		c-1.5,1.27-2.51,2.08-3.81,3.5c-0.68,0.81-0.95,1.14-1.61,1.96c-1.57,1.82-2.02,3.47-2.73,5.76c-0.37,1.08-0.54,1.51-1.02,2.57
		c-2.48,4-3.13,7.49-0.79,11.8c0.67,1.01,0.92,1.42,1.47,2.5C347.44,277.15,355.08,280.49,361.12,286.09z"/>
	<path class="st78" d="M386.4,239.3c0.84,10.39,0.34,20.68,1.25,30.84c0.94,10.51-4.35,13.94-13.45,14.21
		c-3.51,0.1-7.04-0.32-11.47-0.79c-10.54-0.69-14.31-7.57-17.97-15.68c-0.55-0.5-0.43-0.61-0.48-0.55
		c-2.92-4.26-2.37-8.82-0.52-14.33c0.44-0.9,0.59-0.81,0.51-0.86c2.8-1.77,1.73-5.3,3.84-8.12c0.45-0.55,0.55-0.44,0.49-0.48
		c1.23-1.08,2.37-2.27,3.92-3.92c0.4-0.47,0.46-0.34,0.39-0.37c8.72-6.29,18.3-8.2,29.59-4.8c0.84,0.45,0.7,0.4,0.72,0.33
		C382.51,237.03,383.66,238.33,386.4,239.3z"/>
	<path class="st79" d="M264.53,286.72c-0.81-0.88-0.46-1.28-0.35-1.28c0.37-0.51,0.62-1.02,1.67-1.2c3.81-3.16,5.08-7.98,9.23-10.62
		c7-4.44,14.14-9.58,22.77-4.86c8.59,4.7,14.31,11.74,14.13,22.29c-0.19,11.27-6.53,18.4-15.74,23.68
		c-3.22,1.85-6.62,2.68-11.17,2.01C276.5,307.91,264.96,301.61,264.53,286.72z"/>
	<path class="st53" d="M363.82,216.61c-3.04,0.9-6.05,0.97-9.96,0.92c0.07-4.7,2.01-8.77,5.83-12.88
		c6.12,7.01,13.34-2.97,20.52,1.57c-1.85,4.53-5.6,4.93-9.47,5.04C367.48,211.35,364.07,211.12,363.82,216.61z"/>
	<path class="st48" d="M853.5,243.78c0.35-0.2,0.36,0.88,0.36,1.41C853.62,245.14,853.39,244.56,853.5,243.78z"/>
	<path class="st14" d="M266.37,284.08c-0.02,0.91-0.31,1.33-1.34,1.55c-1.04-0.71-1.34-1.22-1.22-2.53
		C264.85,282.74,265.47,283.16,266.37,284.08z"/>
	<g>
		<g>
			<path class="st71" d="M725.54,472.26c-16.46-1.6-31.96,3.98-47.93,1.92c0.8-4.14,2.56-7.39,4.58-10.77
				c13.47-22.61,26.71-45.35,39.87-68.13c4.76-8.25,4.76-17.92,1.15-25.67c-3-6.44-11.7-2.83-17.9-2.71
				c-16.85,0.33-33.69,1.17-50.54,1.5c-22.4,0.44-22.05,0.31-21.74,22.23c0.12,8.69,2.97,11.38,11.52,9.81
				c11.83-2.17,23.81-3.77,37.28-3.54c-4.21,7.98-7.77,14.78-11.36,21.56c-8.56,16.19-19.42,31.15-25.53,48.97
				c-0.2,0.01-0.41,0.02-0.61,0.04c0.06,0.03-0.01-0.09-0.37,0.56c-0.08,0.15-0.15,0.3-0.23,0.45c-0.03-0.28-0.07-0.57-0.1-0.85
				c-3,4.25-5.37,8.28-6.98,12.29c-0.52,0.31-1.09,0.61-1.73,0.86c-0.73,0.75-0.79,1.23-0.39,2.27c0.28,0.35,0.56,0.69,0.85,1.02
				c-0.52-0.23-1.04-0.48-1.54-0.75c-0.22,5.84,0.16,10.87-0.28,15.83c-0.69,7.79,2.7,10.26,10.11,9.38
				c8.86-1.06,17.78-1.59,26.67-3.17c0.28,0.33,0.55,0.65,0.84,0.98c3.94,0.02,7.09-0.14,10.21-1.2c0-0.03-0.01-0.06-0.01-0.09
				c0.31,0.38,0.61,0.77,0.9,1.17c12.7,0.02,24.55-0.28,36.4-0.18c5.04,0.05,9.52-1.74,9.26-6.6
				C727.44,490.44,729.49,481.01,725.54,472.26z"/>
		</g>
	</g>
	<path class="st80" d="M370.16,368.56c-0.44-0.86-0.63-2.02-1.31-2.68c-11.62-11.2-13.95-18.01-9.4-27.87
		c5.87-12.71,13.06-16.08,31.17-13.89c0,14.23,0,28.66,0,43.85c-5.84,2.06-12.27,0.16-19.57,0.47
		C370.04,368.57,370.18,368.48,370.16,368.56z"/>
	<path class="st81" d="M343.95,268.18c6.98,2.88,8.87,12,17.46,14.58c0.39,1.06,0.36,1.61,0.28,2.99
		C352.44,283.99,345.59,279,343.95,268.18z"/>
	<path class="st82" d="M612.17,586.92c3.11-5.77,5.81-11.21,13.03-9.54c7.09,1.64,6.64,8.38,7.88,13.38
		c2.16,8.71-1.53,16.77-4.92,24.57c-1.46,3.37-4.61,6.04-8.45,5.47c-3.73-0.56-6.53-2.59-8.28-6.9
		C607.79,604.89,610.14,596.44,612.17,586.92z"/>
	<path class="st83" d="M885.7,601.18c-5.75,0.56-6.12-2.11-5.19-5.88c1.42-5.77,2.71-11.58,4.02-17.21
		c7.26-2.02,14.2-1.04,15.81,6.33C902.52,594.38,894.05,597.86,885.7,601.18z"/>
	<path class="st84" d="M699.6,571.49c7.18,1.79,11.4,5.49,9.51,12.29c-2.46,8.86-9.77,10.78-18.55,10.97
		c0.46-6.84,0.97-13.09,1.26-19.34C692.05,570.35,695.73,571.47,699.6,571.49z"/>
	<path class="st85" d="M543.21,581.74c6.52,0.2,13.94-3.02,14.9,6.53c1.17,11.68-7.52,13.24-16.67,15.81
		C541.06,596.15,539.49,589.03,543.21,581.74z"/>
	<path class="st86" d="M383.14,234.06c-9.62,1.15-19.67,0.1-29.44,5.42C360.32,229.99,370.23,228.01,383.14,234.06z"/>
	<path class="st87" d="M324.57,334.09c5.18,2.44,7.6,6,7.89,11.15c-3.11,2.94-6.76,2.97-9.05-0.13
		C320.96,341.8,319.55,337.51,324.57,334.09z"/>
	<path class="st88" d="M338.72,306.03c3.05,8.24-4.63,10.75-7.63,15.9c-0.1-6.51,4.29-12.11,2.67-19.79
		C335.94,303.84,337.02,304.69,338.72,306.03z"/>
	<path class="st86" d="M343.38,252.2c1.11,4.4,1.4,8.91,1.27,14.31C337.44,263.05,339.98,257.68,343.38,252.2z"/>
	<path class="st86" d="M347.74,243.49c2.32,3.71,1.27,6.69-2.71,8.83C343.51,248.73,343.44,245.56,347.74,243.49z"/>
	<path class="st86" d="M352.17,239.14c1.75,2.77,0.25,4.13-2.87,4.68C348.34,241.28,348.79,239.49,352.17,239.14z"/>
</g>
</svg>
